<mxfile host="app.diagrams.net" modified="2024-04-26T18:16:48.055Z" agent="Mozilla/5.0 (Windows NT 10.0; Win64; x64) AppleWebKit/537.36 (KHTML, like Gecko) Chrome/124.0.0.0 Safari/537.36" version="24.2.2" etag="9Zqv-sGQkQItlAXGTCWa" type="github">
  <diagram name="Page-1" id="1cwotHloKSz0prXBf04A">
    <mxGraphModel>
      <root>
        <mxCell id="0" />
        <mxCell id="1" parent="0" />
      </root>
    </mxGraphModel>
  </diagram>
</mxfile>
